<svg width="89" height="89" viewBox="0 0 89 89" fill="none" xmlns="http://www.w3.org/2000/svg">
<path fill-rule="evenodd" clip-rule="evenodd" d="M27.3192 10.504L44.456 20.4561L61.0552 10.7963L61.1074 31.5L64.5119 29.5411L64.323 11.4035L79 20.7548L78.9446 59.3777L62.2281 68.6901L62.2118 48.4808L44.4495 58.777V79.2298L27.241 88.9838L10.0652 79.0513L10.1303 61.2123L27.5864 71.187L27.6092 67.677L11.1044 58.1439L27.342 49.2147L27.3192 10.5008V10.504Z" fill="#FDD34A"/>
<path fill-rule="evenodd" clip-rule="evenodd" d="M58.9376 53.9423C58.9376 53.9423 58.9506 53.9423 58.9539 53.9423C58.9604 53.9423 58.9636 53.952 58.9636 53.9552L59.0777 66.7322V53.9845L47.9551 60.3648L58.9636 53.9423L58.9799 66.7354L47.9323 60.3681" fill="#FDD34A"/>
<path fill-rule="evenodd" clip-rule="evenodd" d="M44.456 16.8259L29.9288 8.38697L44.4495 0L58.9669 8.38373L44.456 16.8259Z" fill="#FDD34A"/>
<path fill-rule="evenodd" clip-rule="evenodd" d="M64.323 11.4067L79 20.758L64.5119 29.5574L64.323 11.4067Z" fill="#FDD34A"/>
<path fill-rule="evenodd" clip-rule="evenodd" d="M27.3616 49.1627L44.4495 58.7867L27.6092 67.677L11.1044 58.1438L27.3616 49.1627Z" fill="#FDD34A"/>
<path fill-rule="evenodd" clip-rule="evenodd" d="M27.3388 10.491L44.4397 20.4431L44.4495 58.7868L27.3616 49.1627L27.3388 10.491Z" fill="#FDD34A"/>
<path fill-rule="evenodd" clip-rule="evenodd" d="M10.0652 61.2123L27.6059 71.239L27.2085 89L10 79.0415L10.0652 61.2123Z" fill="#FDD34A"/>
</svg>
